<svg width="174" height="44" viewBox="0 0 174 44" fill="none" xmlns="http://www.w3.org/2000/svg">
  <path fill-rule="evenodd" clip-rule="evenodd" d="M19.9534 1.5242L2.22088 11.7621V32.2379L19.9534 42.4758L37.6861 32.2379V11.7621L19.9534 1.5242ZM39.0061 11L19.9534 0L0.900879 11V33L19.9534 44L39.0061 33V11Z" fill="#BA3FD9"/>
  <path fill-rule="evenodd" clip-rule="evenodd" d="M19.9458 14.11C18.584 14.11 17.4761 13.0014 17.4761 11.6385C17.4761 10.2757 18.584 9.16697 19.9458 9.16697C21.3077 9.16697 22.4156 10.2757 22.4156 11.6385C22.4156 13.0014 21.3077 14.11 19.9458 14.11ZM19.9458 10.5136C19.326 10.5136 18.8218 11.0183 18.8218 11.6385C18.8218 12.2587 19.326 12.7634 19.9458 12.7634C20.5657 12.7634 21.07 12.2587 21.07 11.6385C21.07 11.0183 20.5657 10.5136 19.9458 10.5136Z" fill="#BA3FD9"/>
  <path d="M19.3095 14.5188C19.5216 14.5678 19.7426 14.5936 19.9694 14.5936C20.1963 14.5936 20.4172 14.5677 20.6295 14.5188V19.1418C20.4172 19.0929 20.1963 19.067 19.9694 19.067C19.7426 19.067 19.5216 19.0928 19.3095 19.1418V14.5188Z" fill="#BA3FD9"/>
  <path d="M17.8254 20.0004L13.8203 17.688C13.7566 17.8963 13.6685 18.1006 13.5551 18.297C13.4417 18.4935 13.3088 18.6719 13.1603 18.8311L17.164 21.1427C17.2961 20.7115 17.5251 20.3222 17.8254 20.0004Z" fill="#BA3FD9"/>
  <path d="M17.164 22.8578L13.1603 25.1696C13.3088 25.3289 13.4417 25.5073 13.5552 25.7037C13.6686 25.9002 13.7566 26.1043 13.8203 26.3127L17.8254 24.0003C17.525 23.6784 17.2961 23.2892 17.164 22.8578Z" fill="#BA3FD9"/>
  <path d="M19.3095 24.8587V29.4818C19.5217 29.4327 19.7426 29.407 19.9695 29.407C20.1964 29.407 20.4173 29.4327 20.6295 29.4818V24.8587C20.4172 24.9078 20.1963 24.9335 19.9694 24.9335C19.7426 24.9335 19.5216 24.9078 19.3095 24.8587Z" fill="#BA3FD9"/>
  <path d="M22.1135 24.0003L26.1187 26.3127C26.1823 26.1043 26.2705 25.9 26.3838 25.7035C26.4973 25.507 26.6302 25.3286 26.7787 25.1694L22.7749 22.8578C22.6428 23.2892 22.4139 23.6784 22.1135 24.0003Z" fill="#BA3FD9"/>
  <path d="M22.7749 21.1427L26.7787 18.8311C26.6302 18.6718 26.4973 18.4934 26.3838 18.2969C26.2703 18.1004 26.1823 17.8962 26.1187 17.688L22.1135 20.0004C22.4138 20.3222 22.6428 20.7115 22.7749 21.1427Z" fill="#BA3FD9"/>
  <path fill-rule="evenodd" clip-rule="evenodd" d="M13.1244 18.0756C12.4435 19.255 10.9295 19.6601 9.7492 18.9786C8.56899 18.2973 8.16273 16.7835 8.84366 15.6041C9.5246 14.4247 11.0387 14.0195 12.219 14.7009C13.3992 15.3823 13.8054 16.8962 13.1244 18.0756ZM10.0099 16.2774C9.69996 16.8142 9.88487 17.5032 10.422 17.8133C10.9592 18.1234 11.6483 17.9391 11.9582 17.4023C12.2681 16.8654 12.0833 16.1764 11.5461 15.8663C11.009 15.5561 10.3198 15.7406 10.0099 16.2774Z" fill="#BA3FD9"/>
  <path fill-rule="evenodd" clip-rule="evenodd" d="M13.1481 25.9659C13.829 27.1453 13.4228 28.6589 12.2425 29.3405C11.0623 30.0218 9.54823 29.6168 8.86731 28.4374C8.18636 27.258 8.59257 25.7442 9.77278 25.0626C10.953 24.3813 12.4671 24.7865 13.1481 25.9659ZM10.0335 27.764C10.3434 28.3008 11.0326 28.4851 11.5697 28.1752C12.1069 27.865 12.2918 27.1759 11.9818 26.6391C11.6719 26.1023 10.9828 25.918 10.4456 26.2279C9.90846 26.5381 9.72359 27.2272 10.0335 27.764Z" fill="#BA3FD9"/>
  <path fill-rule="evenodd" clip-rule="evenodd" d="M19.9931 29.8905C21.355 29.8905 22.4628 30.9993 22.4628 32.362C22.4628 33.7249 21.355 34.8335 19.9931 34.8335C18.6312 34.8335 17.5233 33.7249 17.5233 32.362C17.5233 30.9993 18.6312 29.8905 19.9931 29.8905ZM19.9931 33.4868C20.613 33.4868 21.1171 32.9824 21.1171 32.362C21.1171 31.7418 20.613 31.2371 19.9931 31.2371C19.3732 31.2371 18.8689 31.7418 18.8689 32.362C18.8689 32.9824 19.3732 33.4868 19.9931 33.4868Z" fill="#BA3FD9"/>
  <path fill-rule="evenodd" clip-rule="evenodd" d="M26.8146 25.9249C27.4955 24.7455 29.0095 24.3402 30.1898 25.0218C31.3699 25.7031 31.7762 27.217 31.0953 28.3964C30.4144 29.5758 28.9002 29.9808 27.7201 29.2995C26.5398 28.6181 26.1337 27.1043 26.8146 25.9249ZM29.9291 27.7229C30.2391 27.1861 30.0541 26.4973 29.5168 26.1871C28.9798 25.8769 28.2906 26.0613 27.9808 26.5981C27.6708 27.1349 27.8556 27.8239 28.3929 28.1341C28.9299 28.4443 29.6191 28.2597 29.9291 27.7229Z" fill="#BA3FD9"/>
  <path fill-rule="evenodd" clip-rule="evenodd" d="M26.7908 18.0345C26.1099 16.8551 26.516 15.3414 27.6963 14.6599C28.8766 13.9786 30.3907 14.3836 31.0716 15.563C31.7525 16.7424 31.3464 18.2563 30.1663 18.9377C28.986 19.6191 27.4717 19.2139 26.7908 18.0345ZM29.9054 16.2363C29.5956 15.6995 28.9063 15.5152 28.3693 15.8253C27.8321 16.1354 27.6473 16.8244 27.957 17.3612C28.267 17.898 28.9563 18.0825 29.4933 17.7723C30.0305 17.4622 30.2153 16.7732 29.9054 16.2363Z" fill="#BA3FD9"/>
  <path fill-rule="evenodd" clip-rule="evenodd" d="M19.9458 20.8536C19.326 20.8536 18.8218 21.3582 18.8218 21.9784C18.8218 22.5986 19.326 23.1033 19.9458 23.1033C20.5657 23.1033 21.07 22.5986 21.07 21.9784C21.07 21.3582 20.5657 20.8536 19.9458 20.8536ZM19.9458 24.4499C18.584 24.4499 17.4761 23.3413 17.4761 21.9784C17.4761 20.6156 18.584 19.5069 19.9458 19.5069C21.3077 19.5069 22.4156 20.6156 22.4156 21.9784C22.4156 23.3413 21.3077 24.4499 19.9458 24.4499Z" fill="#BA3FD9"/>
  <text x="50" y="28" fill="white" font-family="Arial" font-size="20" font-weight="bold">INT3FACE</text>
</svg>